<svg xmlns="http://www.w3.org/2000/svg" xmlns:xlink="http://www.w3.org/1999/xlink" version="1.1" x="0px" y="0px" viewBox="0 0 100 125" enable-background="new 0 0 100 100" xml:space="preserve"><path fill-rule="evenodd" clip-rule="evenodd" d="M51.643,74.559c-5.426,0.038-8.632-2.962-10.015-7.852  c-2.607-9.216-5.104-18.465-7.381-27.766c-2.029-8.282,2.541-14.25,10.928-15.019c2.154-0.197,2.879,0.71,3.291,2.487  c0.494,2.139,0.946,4.297,1.62,6.38c0.989,3.065,2.88,4.74,6.36,3.599c1.705-0.559,3.433-1.153,5.197-1.431  c4.736-0.748,5.494-3.459,4.86-7.796c-0.423-2.9-4.074-8.021,1.459-10.125c6.61-2.515,12.117-0.173,14.086,5.252  c4.012,11.055,6.982,22.485,9.124,34.06c0.694,3.748-1.438,6.954-4.817,9.016C84.28,66.632,54.198,74.58,51.643,74.559z"/><path fill-rule="evenodd" clip-rule="evenodd" d="M25.752,87.444c-0.187-2.522,0.408-5.141,2.125-6.692  c3.538-3.196,2.667-6.499,1.62-10.33c-5.007-18.306-10.04-36.61-14.555-55.039c-1.229-5.014-3.598-6.958-8.407-7.014  C3.292,8.331-0.615,8.274,0.081,3.548c0.669-4.56,4.48-3.572,7.678-3.175c11.849,1.475,11.896,1.458,15.01,13.019  c5.041,18.712,10.01,37.442,15.015,56.162c1.604,6.005,10.269,11.12,16.233,9.54c12.38-3.282,24.751-6.598,37.121-9.906  c0.773-0.207,1.51-0.564,2.291-0.726c2.738-0.569,5.508-0.604,6.385,2.682c0.89,3.324-1.573,4.647-4.251,5.373  c-10.62,2.878-21.256,5.69-31.891,8.516c-2.128,0.565-4.261,1.116-6.406,1.609c-3.576,0.821-6.346,1.854-7.597,6.254  c-1.523,5.346-8.078,8.014-13.832,6.826C29.436,98.397,25.69,93.842,25.752,87.444z M42.614,87.613  c-0.016-2.665-1.555-4.225-3.995-4.342c-2.749-0.129-4.456,1.399-4.507,4.368c-0.05,2.907,1.936,3.899,4.256,3.899  C40.708,91.539,42.648,90.475,42.614,87.613z"/><polygon fill-rule="evenodd" clip-rule="evenodd" points="65.611,30.875 52.415,34.566 49.175,23.019 62.372,19.327 "/><rect x="48.136" y="17.488" transform="matrix(0.963 -0.2694 0.2694 0.963 -2.9258 15.4939)" fill-rule="evenodd" clip-rule="evenodd" width="13.704" height="1.838"/><text x="0" y="115" fill="#000000" font-size="5px" font-weight="bold" font-family="'Helvetica Neue', Helvetica, Arial-Unicode, Arial, Sans-serif">Created by Ealancheliyan s</text><text x="0" y="120" fill="#000000" font-size="5px" font-weight="bold" font-family="'Helvetica Neue', Helvetica, Arial-Unicode, Arial, Sans-serif">from the Noun Project</text></svg>