<svg xmlns="http://www.w3.org/2000/svg" xmlns:xlink="http://www.w3.org/1999/xlink" version="1.1" x="0px" y="0px" viewBox="0 0 100 125" enable-background="new 0 0 100 100" xml:space="preserve"><g><path fill="none" d="M53.064,35c0.023-0.02,0.038-0.037,0.062-0.057c2.994-2.458,11.801-5.395,9.609-6.559   c-2.194-1.164-6.397-0.115-9.392,2.344c-1.714,1.408-2.655,2.972-2.737,4.271H53.064z"/><path fill="none" d="M44.182,35c1.68-1.302,0.928-4.003-1.858-6.292c-2.993-2.459-7.197-3.508-9.391-2.344   c-2.193,1.165,6.614,4.101,9.608,6.559c1.085,0.892,1.252,1.595,1.135,2.077H44.182z"/><path d="M63.803,35c0.638-0.234,1.302-0.466,2.002-0.693c7.753-2.514,11.114-6.919,7.26-9.094   c-3.854-2.175-16.626-0.422-22.238,3.913c-0.815,0.63-1.53,1.281-2.166,1.938c-0.898-1.333-2.173-2.686-3.82-3.958   c-5.61-4.335-18.384-6.088-22.238-3.913c-3.854,2.175-0.491,6.58,7.261,9.095c2.704,0.877,4.903,1.814,6.762,2.713H17v17h4v44h21   V52h13v44h22V52h4V35H63.803z M53.344,30.729c2.994-2.459,7.197-3.508,9.392-2.344c2.191,1.165-6.615,4.101-9.609,6.559   c-0.023,0.02-0.038,0.037-0.062,0.057h-2.458C50.689,33.701,51.63,32.137,53.344,30.729z M42.541,32.923   c-2.994-2.458-11.801-5.395-9.608-6.559c2.193-1.164,6.398-0.115,9.391,2.344c2.787,2.289,3.538,4.99,1.858,6.292h-0.506   C43.793,34.518,43.625,33.814,42.541,32.923z"/></g></svg>
