<svg xmlns="http://www.w3.org/2000/svg" xmlns:xlink="http://www.w3.org/1999/xlink" version="1.1" x="0px" y="0px" viewBox="0 0 100 125" enable-background="new 0 0 100 100" xml:space="preserve"><g><rect x="-2015.5" y="24.803" fill="none" width="308.059" height="239.395"/><text transform="matrix(1 0 0 1 -2015.5 131.9014)"><tspan x="0" y="0" font-family="'HelveticaNeue-Medium'" font-size="150">CPS</tspan><tspan x="113.96" y="99" font-family="'HelveticaNeue-Light'" font-size="100">blog</tspan></text><rect x="-1763.778" y="263.5" fill="none" width="698.278" height="73.738"/><text transform="matrix(1 0 0 1 -1763.7778 277.7002)" font-family="'MyriadPro-Regular'" font-size="20">Connecting Theory to Practice, Promoting Public Good, and Searching for Solutions</text><path d="M-669.303,543.272c11.71-6.344,19.663-18.739,19.663-32.994c0-20.712-16.788-37.5-37.5-37.5   s-37.5,16.788-37.5,37.5c0,14.439,8.165,26.964,20.125,33.23c-18.819,10.765-32.194,38.076-32.194,70.086   c0,0.136,0.006,0.27,0.007,0.405h80.255c3.291-12.326,8.341-23.536,14.75-33.091C-647.292,563.607-657.189,550.021-669.303,543.272   z"/><path d="M-448.303,543.272c11.71-6.344,19.663-18.739,19.663-32.994c0-20.712-16.788-37.5-37.5-37.5   s-37.5,16.788-37.5,37.5c0,14.439,8.165,26.964,20.125,33.23c-11.81,6.755-21.47,20.023-27.03,36.886   c6.573,9.674,11.754,21.068,15.125,33.605h79.704c0.001-0.136,0.007-0.27,0.007-0.405   C-415.709,581.356-429.271,553.876-448.303,543.272z"/><path d="M-505.42,614c-3.371-12.537-8.552-23.932-15.125-33.605c-8.193-12.058-18.549-21.435-30.251-27.02   c14.752-8.693,24.656-24.734,24.656-43.097c0-27.614-22.386-50-50-50s-50,22.386-50,50c0,18.448,9.998,34.551,24.864,43.216   c-11.803,5.676-22.223,15.189-30.422,27.415c-6.409,9.555-11.459,20.765-14.75,33.091c-2.804,10.501-4.334,21.808-4.334,33.595   c0,0.136,0.076,0.27,0.076,0.405H-501C-501,636.08-502.561,624.63-505.42,614z"/><path opacity="0.2" d="M-510.857-214.241c-50.819-8.452-86.949-6.474-91.338,7.403   c-6.82,21.566,65.597,63.7,161.75,94.107c96.152,30.407,179.627,37.573,186.448,16.006c4.91-15.527-31.255-41.716-87.776-66.513   c-28.021-2.634-59.797-9.097-92.672-19.493C-462.698-191.665-488.614-202.51-510.857-214.241z"/><ellipse transform="matrix(-0.3015 0.9535 -0.9535 -0.3015 -86.9541 -265.8626)" opacity="0.2" cx="53.904" cy="-164.781" rx="40.957" ry="182.598"/><ellipse cx="-852.013" cy="-64.329" rx="125" ry="75"/><g><path d="M-370.875,698.062c-10.211-18.645-69.457-11.633-130.082,19.377c0.157,1.178,0.164,2.352,0.014,3.521    c-2.396,18.622-44.074,28.719-91.758,22.654l-0.009,0.08l-76.222-9.807l49.321,2.978l27.29,0.854    c8.672-0.349,64.104,1.847,79.312-14.498c2.389-2.568,1.73-8.229,1.579-9.396c-2.26-17.488-35.891-31.724-79.751-37.538    c-1.768-0.233-3.505-0.604-5.245-0.835l-64.068-8.49c-1.741-0.231-3.512-0.324-5.279-0.56    c-12.464-1.651-21.466-2.258-33.267-2.321c-13.751-1.012-25.466-0.395-37.511,4.24c-47.963,16.135-70.761,26.064-115.307,50.237    c-5.078,2.757-10.135,5.472-15.135,8.153l51.611,91.174c4.025-2.465,8.155-5.059,12.417-7.82    c34.202-22.163,44.788-32.38,56.143-31.416c13.093-0.396,62.116,9.105,92.246,16.207c30.812,7.263,36.362,9.297,67.087,18.052    c42.642,12.508,37.33,8.162,72.205-9.097c21.644-12.235,26.293-15.376,40.365-23.878    C-393.047,730.47-357.799,721.941-370.875,698.062z"/><path d="M-867.192,726.818c0.066-0.035,0.134-0.07,0.2-0.106l-0.003-0.005L-867.192,726.818z"/></g><path d="M40.373,29.833c2.105-1.139,3.532-3.366,3.532-5.926c0-3.719-3.014-6.735-6.734-6.735   c-3.72,0-6.735,3.016-6.735,6.735c0,2.593,1.333,4.843,3.48,5.968C30.535,31.809,28,36.714,28,42.462C28,42.487,28,42,28,42h14.684   c0.592-2,1.499-3.959,2.65-5.676C44.327,33.216,42.551,31.045,40.373,29.833z"/><path d="M80.106,29.833c2.104-1.139,3.513-3.366,3.513-5.926c0-3.719-3.026-6.735-6.747-6.735   c-3.72,0-6.739,3.016-6.739,6.735c0,2.593,1.464,4.843,3.612,5.968c-2.121,1.214-3.858,3.329-4.856,6.357   C70.068,37.97,70.998,40,71.604,42H86c0,0,0,0.487,0,0.462C86,36.673,83.524,31.738,80.106,29.833z"/><path d="M69.808,42.715c-0.604-2.253-1.535-4.388-2.716-6.126c-1.471-2.166-3.331-3.895-5.433-4.897   c2.648-1.561,4.429-4.464,4.429-7.762c0-4.959-4.022-8.992-8.981-8.992s-8.356,3.437-8.979,8.974   c-0.37,3.292,1.795,6.203,4.466,7.759c-2.12,1.019-3.991,2.726-5.464,4.922c-1.15,1.716-2.058,3.729-2.648,5.942   c-0.505,1.887-0.779,4.096-0.779,6.213c0,0.025,0.014,0.251,0.014,0.251h26.887C70.602,46,70.322,44.623,69.808,42.715z"/><g><path d="M92.5,61.25c-1.834-3.349-10.002-2.706-20.89,2.863c0.028,0.211,0.028,0.422,0.002,0.632    c-0.431,3.345-7.362,4.671-24.779,0.171l2.667,0.25l5.917,0.75C57.841,66.035,67.271,67.185,70,64.25    c0.43-0.461,0.278-2.124,0.25-2.333c-0.406-3.141-3.436-3.373-11.312-4.417c-0.317-0.043-6.5-1.834-6.812-1.875    c-4.688-1.291-6.188-1.625-9.562-2.375c-3.916-0.87-4.944-0.739-7.062-0.75c-2.813,0.245-4.337,0.293-6.5,1.125    c-8.615,2.897-12.411,5.348-20.413,9.689c-0.911,0.495-1.819,0.983-2.717,1.464l9.269,16.376c0.723-0.443,1.465-0.909,2.23-1.405    c6.143-3.98,10.093-7.422,12.131-7.249c2.352-0.071,8.606,2.667,14.52,4.517c5.427,1.697,6.531,1.67,12.05,3.243    c7.657,2.246,6.704,1.466,12.968-1.634c3.886-2.198,4.721-2.762,7.25-4.289C90.99,65.453,94.849,65.54,92.5,61.25z"/><path d="M4.834,62.797c0.011-0.006,0.024-0.012,0.036-0.02v0L4.834,62.797z"/></g></g><g display="none"><rect x="-2039.5" y="104.5" display="inline" stroke="#00FF00" stroke-miterlimit="10" width="1000" height="80"/><rect x="-1255.5" y="-0.5" display="inline" stroke="#00FF00" stroke-miterlimit="10" width="190" height="288"/><rect x="-1445.5" y="-0.5" display="inline" stroke="#00FF00" stroke-miterlimit="10" width="190" height="288"/><rect x="-1635.5" y="-0.5" display="inline" stroke="#00FF00" stroke-miterlimit="10" width="190" height="288"/><rect x="-1825.5" y="-0.5" display="inline" stroke="#00FF00" stroke-miterlimit="10" width="190" height="288"/><rect x="-2015.5" y="25.5" display="inline" stroke="#00FF00" stroke-miterlimit="10" width="950" height="238"/></g></svg>
